<svg xmlns="http://www.w3.org/2000/svg" viewBox="0 0 401.5 401.4"><defs><style>.cls-1{fill:#666962;}</style></defs><g id="Layer_2" data-name="Layer 2"><g id="Layer_1-2" data-name="Layer 1"><path class="cls-1" d="M.94,161.55,195.75,399.88A4.17,4.17,0,0,0,199,401.4h4a4.13,4.13,0,0,0,3.22-1.53l194.33-239a9.07,9.07,0,0,0,1-4v-24c0-.94-1.41-3.26-2-4L298.43,2.66a4.15,4.15,0,0,0-6.61.19h0a4.16,4.16,0,0,0,.13,5L391.1,132.27a4.15,4.15,0,0,1,.9,2.58V153a4.14,4.14,0,0,1-.9,2.57l-185,233.09a4.14,4.14,0,0,1-3,1.56l-1.95.11a4.15,4.15,0,0,1-3.44-1.53L7.93,154.89a2.19,2.19,0,0,1-.43-1.2V134.9a7.29,7.29,0,0,1,1.66-4.62L109.93,7.92A4.16,4.16,0,0,0,110,2.79l-.84-1.13a4.16,4.16,0,0,0-6.55-.12L.92,127.27A4.19,4.19,0,0,0,0,129.88v27.51C0,159.88.33,160.81.94,161.55Z"/></g></g></svg>