<svg xmlns="http://www.w3.org/2000/svg" xmlns:xlink="http://www.w3.org/1999/xlink" viewBox="0 0 401.5 614"><defs><style>.cls-1{fill:#50534f;}.cls-2{fill:#76786b;}.cls-3{fill:#fff;}.cls-4{fill:url(#linear-gradient);}.cls-5{fill:url(#linear-gradient-2);}.cls-6{fill:url(#linear-gradient-3);}.cls-7{fill:url(#linear-gradient-4);}.cls-8{fill:#666962;}.cls-9{fill:#9b9c8b;}.cls-10{fill:#e4eee7;}</style><linearGradient id="linear-gradient" x1="202.75" y1="333" x2="285.69" y2="333" gradientUnits="userSpaceOnUse"><stop offset="0.03" stop-color="#ffff8c"/><stop offset="0.03" stop-color="#f8f48e"/><stop offset="0.04" stop-color="#ece391"/><stop offset="0.05" stop-color="#e4d893"/><stop offset="0.06" stop-color="#dfd194"/><stop offset="0.09" stop-color="#decf94"/><stop offset="0.41" stop-color="#ffffb5"/><stop offset="0.55" stop-color="#ffffb7"/><stop offset="0.6" stop-color="#ffffbe"/><stop offset="0.65" stop-color="#ffffcb"/><stop offset="0.69" stop-color="#ffd"/><stop offset="0.72" stop-color="#fffff4"/><stop offset="0.73" stop-color="#fff"/><stop offset="0.92" stop-color="#ffeca3"/></linearGradient><linearGradient id="linear-gradient-2" x1="109.5" y1="333" x2="199.5" y2="333" gradientUnits="userSpaceOnUse"><stop offset="0.22" stop-color="#ffa331"/><stop offset="0.31" stop-color="#df962f"/><stop offset="0.4" stop-color="#c58c2d"/><stop offset="0.51" stop-color="#b0832b"/><stop offset="0.63" stop-color="#a17d2a"/><stop offset="0.77" stop-color="#997a29"/><stop offset="1" stop-color="#967929"/></linearGradient><linearGradient id="linear-gradient-3" x1="162.06" y1="245.94" x2="220.4" y2="218.74" gradientUnits="userSpaceOnUse"><stop offset="0.17" stop-color="#ffa331"/><stop offset="0.2" stop-color="#f39e30"/><stop offset="0.27" stop-color="#d6932e"/><stop offset="0.35" stop-color="#bf892c"/><stop offset="0.44" stop-color="#ac822b"/><stop offset="0.55" stop-color="#a07d2a"/><stop offset="0.69" stop-color="#987a29"/><stop offset="1" stop-color="#967929"/></linearGradient><linearGradient id="linear-gradient-4" x1="199.5" y1="228.48" x2="243.5" y2="228.48" gradientUnits="userSpaceOnUse"><stop offset="0.11" stop-color="#decf94"/><stop offset="0.19" stop-color="#e7dc9d"/><stop offset="0.35" stop-color="#f9f6af"/><stop offset="0.45" stop-color="#ffffb5"/><stop offset="0.57" stop-color="#ffffb7"/><stop offset="0.62" stop-color="#ffffbe"/><stop offset="0.66" stop-color="#ffffcb"/><stop offset="0.69" stop-color="#ffd"/><stop offset="0.72" stop-color="#fffff4"/><stop offset="0.73" stop-color="#fff"/><stop offset="0.92" stop-color="#ffeca3"/></linearGradient></defs><g id="Layer_2" data-name="Layer 2"><g id="Layer_1-2" data-name="Layer 1"><path class="cls-1" d="M201,74.09C201.46,74,74.87,231.65,53.54,258.22a13.76,13.76,0,0,0-3,8.63v6a13.83,13.83,0,0,0,3.08,8.69L200.75,463"/><path class="cls-2" d="M200,76.09c-.46-.08,126.13,157.56,147.46,184.13a13.76,13.76,0,0,1,3,8.63v6a13.83,13.83,0,0,1-3.08,8.69L200.25,465"/><polygon class="cls-3" points="269.5 614 131.27 614 7.5 458 7.5 291 269.5 614"/><polyline class="cls-3" points="219 513.5 350.44 513.5 396 460.5 396.15 293.5 219 512.66"/><polygon class="cls-4" points="200 329 200 443 290 333 290 223 200 329"/><polygon class="cls-5" points="199.5 329 199.5 443 109.5 333 109.5 223 199.5 329"/><path class="cls-6" d="M199.5,283.06l-42.2-48a7.24,7.24,0,0,1-1.8-4.78v-4.5a7.25,7.25,0,0,1,1.85-4.83l42.15-47Z"/><path class="cls-7" d="M199.5,283.06l42.2-48a7.24,7.24,0,0,0,1.8-4.78v-4.5a7.25,7.25,0,0,0-1.85-4.83l-42.15-47Z"/><path class="cls-8" d="M.94,287.65,195.75,526A4.17,4.17,0,0,0,199,527.5h4a4.13,4.13,0,0,0,3.22-1.53L400.5,287a9.07,9.07,0,0,0,1-4V259c0-.95-1.41-3.26-2-4L298.43,128.76a4.15,4.15,0,0,0-6.61.19h0a4.16,4.16,0,0,0,.13,5L391.1,258.37A4.15,4.15,0,0,1,392,261v18.1a4.15,4.15,0,0,1-.9,2.58l-185,233.09a4.14,4.14,0,0,1-3,1.56l-1.95.11a4.15,4.15,0,0,1-3.44-1.53L7.93,281a2.19,2.19,0,0,1-.43-1.2V261a7.27,7.27,0,0,1,1.66-4.62L109.93,134a4.16,4.16,0,0,0,.11-5.13l-.84-1.13a4.16,4.16,0,0,0-6.55-.13C85.75,148.53,10.15,242,.92,253.37A4.17,4.17,0,0,0,0,256v27.52C0,286,.33,286.9.94,287.65Z"/><polygon class="cls-3" points="105.5 117 105.5 124.12 111.5 131 119.77 131 199.5 32 282.42 131 289.75 131 294.5 125 296.5 117 199.5 0 105.5 117"/><polygon class="cls-2" points="185.5 129 190.5 135 86.5 262 86.5 273 109.5 299 109.5 315 78.5 276 78.5 259 185.5 129"/><polygon class="cls-9" points="213.5 129 208.5 135 312.5 262 312.5 273 289.5 299 289.5 315 320.5 276 320.5 259 213.5 129"/><path class="cls-10" d="M199.5,145.25,182,125.68a5.89,5.89,0,0,1-1.51-3.94v-2.42a5.91,5.91,0,0,1,1.53-4l18-19.86,17.07,19.85a5.92,5.92,0,0,1,1.43,3.85v2.71a5.88,5.88,0,0,1-1.5,3.93C212.52,130.86,199.5,145.45,199.5,145.25Z"/></g></g></svg>