<svg xmlns="http://www.w3.org/2000/svg" viewBox="0 0 414.5 414.4"><defs><style>.cls-1{fill:#666962;}.cls-2{fill:none;stroke:#000;stroke-miterlimit:10;stroke-width:3px;}</style></defs><g id="Layer_2" data-name="Layer 2"><g id="Layer_1-2" data-name="Layer 1"><path class="cls-1" d="M205.47,412.9a9.11,9.11,0,0,1-7.09-3.36L3.57,171.21c-1.72-2.1-2.07-4.44-2.07-7.32V136.38a9.17,9.17,0,0,1,2-5.76L100.6,10.67l4.67-5.78a9.15,9.15,0,0,1,14.43.27l.84,1.13a9.14,9.14,0,0,1-.25,11.31L19.52,140A2.25,2.25,0,0,0,19,141.4v17.69L207.78,391.77l1.13-.06L393.5,159.16V141.65l-99-124.18A9.15,9.15,0,0,1,308.83,6L409.9,132.28s3.1,3.89,3.1,7.12v24s-.06,4.62-2.12,7.15l-194.33,239a9.09,9.09,0,0,1-7.1,3.38Z"/><path class="cls-2" d="M205.47,412.9a9.11,9.11,0,0,1-7.09-3.36L3.57,171.21c-1.72-2.1-2.07-4.44-2.07-7.32V136.38a9.17,9.17,0,0,1,2-5.76L100.6,10.67l4.67-5.78a9.15,9.15,0,0,1,14.43.27l.84,1.13a9.14,9.14,0,0,1-.25,11.31L19.52,140A2.25,2.25,0,0,0,19,141.4v17.69L207.78,391.77l1.13-.06L393.5,159.16V141.65l-99-124.18A9.15,9.15,0,0,1,308.83,6L409.9,132.28s3.1,3.89,3.1,7.12v24s-.06,4.62-2.12,7.15l-194.33,239a9.09,9.09,0,0,1-7.1,3.38Z"/></g></g></svg>