<svg xmlns="http://www.w3.org/2000/svg" xmlns:xlink="http://www.w3.org/1999/xlink" viewBox="0 0 414.5 618.37"><defs><style>.cls-1{fill:#50534f;}.cls-1,.cls-10,.cls-11,.cls-12,.cls-2,.cls-3,.cls-4,.cls-5,.cls-6,.cls-7,.cls-9{stroke:#000;stroke-miterlimit:10;}.cls-1,.cls-10,.cls-11,.cls-12,.cls-2,.cls-4,.cls-5,.cls-6,.cls-7,.cls-9{stroke-width:3px;}.cls-2{fill:#76786b;}.cls-10,.cls-3{fill:#fff;}.cls-3{stroke-width:4px;}.cls-4{fill:url(#linear-gradient);}.cls-5{fill:url(#linear-gradient-2);}.cls-6{fill:url(#linear-gradient-3);}.cls-7{fill:url(#linear-gradient-4);}.cls-8{fill:#666962;}.cls-9{fill:none;}.cls-11{fill:#9b9c8b;}.cls-12{fill:#e4eee7;}</style><linearGradient id="linear-gradient" x1="209.25" y1="335.37" x2="292.19" y2="335.37" gradientUnits="userSpaceOnUse"><stop offset="0.03" stop-color="#ffff8c"/><stop offset="0.03" stop-color="#f8f48e"/><stop offset="0.04" stop-color="#ece391"/><stop offset="0.05" stop-color="#e4d893"/><stop offset="0.06" stop-color="#dfd194"/><stop offset="0.09" stop-color="#decf94"/><stop offset="0.41" stop-color="#ffffb5"/><stop offset="0.55" stop-color="#ffffb7"/><stop offset="0.6" stop-color="#ffffbe"/><stop offset="0.65" stop-color="#ffffcb"/><stop offset="0.69" stop-color="#ffd"/><stop offset="0.72" stop-color="#fffff4"/><stop offset="0.73" stop-color="#fff"/><stop offset="0.92" stop-color="#ffeca3"/></linearGradient><linearGradient id="linear-gradient-2" x1="116" y1="335.37" x2="206" y2="335.37" gradientUnits="userSpaceOnUse"><stop offset="0.22" stop-color="#ffa331"/><stop offset="0.31" stop-color="#df962f"/><stop offset="0.4" stop-color="#c58c2d"/><stop offset="0.51" stop-color="#b0832b"/><stop offset="0.63" stop-color="#a17d2a"/><stop offset="0.77" stop-color="#997a29"/><stop offset="1" stop-color="#967929"/></linearGradient><linearGradient id="linear-gradient-3" x1="168.56" y1="248.32" x2="226.9" y2="221.11" gradientUnits="userSpaceOnUse"><stop offset="0.17" stop-color="#ffa331"/><stop offset="0.2" stop-color="#f39e30"/><stop offset="0.27" stop-color="#d6932e"/><stop offset="0.35" stop-color="#bf892c"/><stop offset="0.44" stop-color="#ac822b"/><stop offset="0.55" stop-color="#a07d2a"/><stop offset="0.69" stop-color="#987a29"/><stop offset="1" stop-color="#967929"/></linearGradient><linearGradient id="linear-gradient-4" x1="206" y1="230.86" x2="250" y2="230.86" gradientUnits="userSpaceOnUse"><stop offset="0.11" stop-color="#decf94"/><stop offset="0.19" stop-color="#e7dc9d"/><stop offset="0.35" stop-color="#f9f6af"/><stop offset="0.45" stop-color="#ffffb5"/><stop offset="0.57" stop-color="#ffffb7"/><stop offset="0.62" stop-color="#ffffbe"/><stop offset="0.66" stop-color="#ffffcb"/><stop offset="0.69" stop-color="#ffd"/><stop offset="0.72" stop-color="#fffff4"/><stop offset="0.73" stop-color="#fff"/><stop offset="0.92" stop-color="#ffeca3"/></linearGradient></defs><g id="Layer_2" data-name="Layer 2"><g id="Layer_1-2" data-name="Layer 1"><path class="cls-1" d="M207.5,76.46C208,76.38,81.37,234,60,260.59a13.77,13.77,0,0,0-3,8.64v6a13.83,13.83,0,0,0,3.08,8.69L207.25,465.35"/><path class="cls-2" d="M206.5,78.46C206,78.38,332.63,236,354,262.59a13.77,13.77,0,0,1,3,8.64v6a13.83,13.83,0,0,1-3.08,8.69L206.75,467.35"/><polygon class="cls-3" points="276 616.37 137.77 616.37 14 460.37 14 293.37 276 616.37"/><polyline class="cls-3" points="225.5 515.87 356.94 515.87 402.5 462.87 402.65 295.87 225.5 515.03"/><polygon class="cls-4" points="206.5 331.37 206.5 445.37 296.5 335.37 296.5 225.37 206.5 331.37"/><polygon class="cls-5" points="206 331.37 206 445.37 116 335.37 116 225.37 206 331.37"/><path class="cls-6" d="M206,285.43l-42.2-48a7.24,7.24,0,0,1-1.8-4.78v-4.5a7.25,7.25,0,0,1,1.85-4.83l42.15-47Z"/><path class="cls-7" d="M206,285.43l42.2-48a7.24,7.24,0,0,0,1.8-4.78v-4.5a7.25,7.25,0,0,0-1.85-4.83l-42.15-47Z"/><path class="cls-8" d="M205.47,534.87a9.11,9.11,0,0,1-7.09-3.36L3.57,293.18c-1.72-2.1-2.07-4.44-2.07-7.32V258.35a9.17,9.17,0,0,1,2-5.76l97.06-120,4.67-5.78a9.15,9.15,0,0,1,14.43.27l.84,1.13a9.14,9.14,0,0,1-.25,11.31L19.52,261.93a2.25,2.25,0,0,0-.52,1.44v17.69L207.78,513.74l1.13-.06L393.5,281.13V263.62l-99-124.18A9.15,9.15,0,0,1,308.83,128L409.9,254.25s3.1,3.89,3.1,7.12v24c0,.05-.06,4.62-2.12,7.16l-194.33,239a9.09,9.09,0,0,1-7.1,3.38Z"/><path class="cls-9" d="M205.47,534.87a9.11,9.11,0,0,1-7.09-3.36L3.57,293.18c-1.72-2.1-2.07-4.44-2.07-7.32V258.35a9.17,9.17,0,0,1,2-5.76l97.06-120,4.67-5.78a9.15,9.15,0,0,1,14.43.27l.84,1.13a9.14,9.14,0,0,1-.25,11.31L19.52,261.93a2.25,2.25,0,0,0-.52,1.44v17.69L207.78,513.74l1.13-.06L393.5,281.13V263.62l-99-124.18A9.15,9.15,0,0,1,308.83,128L409.9,254.25s3.1,3.89,3.1,7.12v24c0,.05-.06,4.62-2.12,7.16l-194.33,239a9.09,9.09,0,0,1-7.1,3.38Z"/><polygon class="cls-10" points="112 119.37 112 126.49 118 133.37 126.27 133.37 206 34.37 288.92 133.37 296.25 133.37 301 127.37 303 119.37 206 2.37 112 119.37"/><polygon class="cls-2" points="192 131.37 197 137.37 93 264.37 93 275.37 116 301.37 116 317.37 85 278.37 85 261.37 192 131.37"/><polygon class="cls-11" points="220 131.37 215 137.37 319 264.37 319 275.37 296 301.37 296 317.37 327 278.37 327 261.37 220 131.37"/><path class="cls-12" d="M206,147.62l-17.49-19.56a5.94,5.94,0,0,1-1.51-4V121.7a5.87,5.87,0,0,1,1.53-4l18-19.87,17.07,19.85a5.92,5.92,0,0,1,1.43,3.86v2.7a5.88,5.88,0,0,1-1.5,3.93C219,133.24,206,147.83,206,147.62Z"/></g></g></svg>